# xmcd CD database file
#
# Track frame offsets:
#	150
#	20710
#	42409
#	58032
#	73171
#	86087
#	105021
#	120503
#	137404
#	153779
#	165770
#	183924
#	200613
#	217016
#	231119
#	244089
#	270619
#	287702
#	301368
#	313002
#	334368
#
# Disc length: 4632 seconds
#
# Revision: 0
# Processed by: cddbd v1.5.2PL0 Copyright (c) Steve Scherf et al.
# Submitted via: CDex 1.51
#
DISCID=27121615
DTITLE=Various Artist - Deutz NDW Compilation
DYEAR=1987
DGENRE=New Age
TTITLE0=Falco - Junge Römer
TTITLE1=Grauzone - Eisbär
TTITLE2=UKW - Ich Will
TTITLE3=Steinwolke - Katherine Katherine
TTITLE4=Fräulein Menke - Hohe Berge
TTITLE5=Falco - Vienna Calling
TTITLE6=Combo Colossale - Puppen weinen nicht
TTITLE7=KIZ - Die Sennerin vom Königssee
TTITLE8=Spider Murphy Gang - Skandal
TTITLE9=Andreas Durau and Die Marinas - Fred vom Jupiter
TTITLE10=Peter Schilling - Major Tom
TTITLE11=Falco - Maschine brennt
TTITLE12=UKW - Sommersprossen
TTITLE13=Fräulein Menke - Tretboot in Seenot
TTITLE14=Fehlfarben - Ein Jahr
TTITLE15=Falco - Rock Me Amadeus
TTITLE16=Hubert Kah - Rosemarie
TTITLE17=Markus - Schön sind wir sowieso
TTITLE18=Extrabreit - Hurra die Schule brennt
TTITLE19=Joachim Witt - Tri Tra Trullala
TTITLE20=The Specials - Rudi, A Message for You
EXTD=YEAR: 1987
EXTT0=
EXTT1=
EXTT2=
EXTT3=
EXTT4=
EXTT5=
EXTT6=
EXTT7=
EXTT8=
EXTT9=
EXTT10=
EXTT11=
EXTT12=
EXTT13=
EXTT14=
EXTT15=
EXTT16=
EXTT17=
EXTT18=
EXTT19=
EXTT20=
PLAYORDER=
